<svg width="324" height="130" viewBox="0 0 324 130" fill="none" xmlns="http://www.w3.org/2000/svg">
<path d="M103.609 114.303C103.609 113.846 103.539 113.436 103.398 113.072C103.27 112.697 103.023 112.357 102.66 112.053C102.297 111.736 101.787 111.426 101.131 111.121C100.475 110.816 99.625 110.5 98.582 110.172C97.4219 109.797 96.3203 109.375 95.2773 108.906C94.2461 108.438 93.332 107.893 92.5352 107.271C91.75 106.639 91.1289 105.906 90.6719 105.074C90.2266 104.242 90.0039 103.275 90.0039 102.174C90.0039 101.107 90.2383 100.141 90.707 99.2734C91.1758 98.3945 91.832 97.6445 92.6758 97.0234C93.5195 96.3906 94.5156 95.9043 95.6641 95.5645C96.8242 95.2246 98.0957 95.0547 99.4785 95.0547C101.365 95.0547 103.012 95.3945 104.418 96.0742C105.824 96.7539 106.914 97.6855 107.688 98.8691C108.473 100.053 108.865 101.406 108.865 102.93H103.627C103.627 102.18 103.469 101.523 103.152 100.961C102.848 100.387 102.379 99.9355 101.746 99.6074C101.125 99.2793 100.34 99.1152 99.3906 99.1152C98.4766 99.1152 97.7148 99.2559 97.1055 99.5371C96.4961 99.8066 96.0391 100.176 95.7344 100.645C95.4297 101.102 95.2773 101.617 95.2773 102.191C95.2773 102.625 95.3828 103.018 95.5938 103.369C95.8164 103.721 96.1445 104.049 96.5781 104.354C97.0117 104.658 97.5449 104.945 98.1777 105.215C98.8105 105.484 99.543 105.748 100.375 106.006C101.77 106.428 102.994 106.902 104.049 107.43C105.115 107.957 106.006 108.549 106.721 109.205C107.436 109.861 107.975 110.605 108.338 111.438C108.701 112.27 108.883 113.213 108.883 114.268C108.883 115.381 108.666 116.377 108.232 117.256C107.799 118.135 107.172 118.879 106.352 119.488C105.531 120.098 104.553 120.561 103.416 120.877C102.279 121.193 101.008 121.352 99.6016 121.352C98.3359 121.352 97.0879 121.188 95.8574 120.859C94.627 120.52 93.5078 120.01 92.5 119.33C91.5039 118.65 90.707 117.783 90.1094 116.729C89.5117 115.674 89.2129 114.426 89.2129 112.984H94.5039C94.5039 113.781 94.627 114.455 94.873 115.006C95.1191 115.557 95.4648 116.002 95.9102 116.342C96.3672 116.682 96.9062 116.928 97.5273 117.08C98.1602 117.232 98.8516 117.309 99.6016 117.309C100.516 117.309 101.266 117.18 101.852 116.922C102.449 116.664 102.889 116.307 103.17 115.85C103.463 115.393 103.609 114.877 103.609 114.303ZM123.402 116.447V101.98H128.465V121H123.701L123.402 116.447ZM123.965 112.545L125.459 112.51C125.459 113.775 125.312 114.953 125.02 116.043C124.727 117.121 124.287 118.059 123.701 118.855C123.115 119.641 122.377 120.256 121.486 120.701C120.596 121.135 119.547 121.352 118.34 121.352C117.414 121.352 116.559 121.223 115.773 120.965C115 120.695 114.332 120.279 113.77 119.717C113.219 119.143 112.785 118.41 112.469 117.52C112.164 116.617 112.012 115.533 112.012 114.268V101.98H117.074V114.303C117.074 114.865 117.139 115.34 117.268 115.727C117.408 116.113 117.602 116.43 117.848 116.676C118.094 116.922 118.381 117.098 118.709 117.203C119.049 117.309 119.424 117.361 119.834 117.361C120.877 117.361 121.697 117.15 122.295 116.729C122.904 116.307 123.332 115.732 123.578 115.006C123.836 114.268 123.965 113.447 123.965 112.545ZM140.189 117.396C140.811 117.396 141.361 117.279 141.842 117.045C142.322 116.799 142.697 116.459 142.967 116.025C143.248 115.58 143.395 115.059 143.406 114.461H148.17C148.158 115.797 147.801 116.986 147.098 118.029C146.395 119.061 145.451 119.875 144.268 120.473C143.084 121.059 141.76 121.352 140.295 121.352C138.818 121.352 137.529 121.105 136.428 120.613C135.338 120.121 134.43 119.441 133.703 118.574C132.977 117.695 132.432 116.676 132.068 115.516C131.705 114.344 131.523 113.09 131.523 111.754V111.244C131.523 109.896 131.705 108.643 132.068 107.482C132.432 106.311 132.977 105.291 133.703 104.424C134.43 103.545 135.338 102.859 136.428 102.367C137.518 101.875 138.795 101.629 140.26 101.629C141.818 101.629 143.184 101.928 144.355 102.525C145.539 103.123 146.465 103.979 147.133 105.092C147.812 106.193 148.158 107.5 148.17 109.012H143.406C143.395 108.379 143.26 107.805 143.002 107.289C142.756 106.773 142.393 106.363 141.912 106.059C141.443 105.742 140.863 105.584 140.172 105.584C139.434 105.584 138.83 105.742 138.361 106.059C137.893 106.363 137.529 106.785 137.271 107.324C137.014 107.852 136.832 108.455 136.727 109.135C136.633 109.803 136.586 110.506 136.586 111.244V111.754C136.586 112.492 136.633 113.201 136.727 113.881C136.82 114.561 136.996 115.164 137.254 115.691C137.523 116.219 137.893 116.635 138.361 116.939C138.83 117.244 139.439 117.396 140.189 117.396ZM159.859 121.352C158.383 121.352 157.059 121.117 155.887 120.648C154.715 120.168 153.719 119.506 152.898 118.662C152.09 117.818 151.469 116.84 151.035 115.727C150.602 114.602 150.385 113.406 150.385 112.141V111.438C150.385 109.996 150.59 108.678 151 107.482C151.41 106.287 151.996 105.25 152.758 104.371C153.531 103.492 154.469 102.818 155.57 102.35C156.672 101.869 157.914 101.629 159.297 101.629C160.645 101.629 161.84 101.852 162.883 102.297C163.926 102.742 164.799 103.375 165.502 104.195C166.217 105.016 166.756 106 167.119 107.148C167.482 108.285 167.664 109.551 167.664 110.945V113.055H152.547V109.68H162.689V109.293C162.689 108.59 162.561 107.963 162.303 107.412C162.057 106.85 161.682 106.404 161.178 106.076C160.674 105.748 160.029 105.584 159.244 105.584C158.576 105.584 158.002 105.73 157.521 106.023C157.041 106.316 156.648 106.727 156.344 107.254C156.051 107.781 155.828 108.402 155.676 109.117C155.535 109.82 155.465 110.594 155.465 111.438V112.141C155.465 112.902 155.57 113.605 155.781 114.25C156.004 114.895 156.314 115.451 156.713 115.92C157.123 116.389 157.615 116.752 158.189 117.01C158.775 117.268 159.438 117.396 160.176 117.396C161.09 117.396 161.939 117.221 162.725 116.869C163.521 116.506 164.207 115.961 164.781 115.234L167.242 117.906C166.844 118.48 166.299 119.031 165.607 119.559C164.928 120.086 164.107 120.52 163.146 120.859C162.186 121.188 161.09 121.352 159.859 121.352ZM180.83 115.744C180.83 115.381 180.725 115.053 180.514 114.76C180.303 114.467 179.91 114.197 179.336 113.951C178.773 113.693 177.959 113.459 176.893 113.248C175.932 113.037 175.035 112.773 174.203 112.457C173.383 112.129 172.668 111.736 172.059 111.279C171.461 110.822 170.992 110.283 170.652 109.662C170.312 109.029 170.143 108.309 170.143 107.5C170.143 106.703 170.312 105.953 170.652 105.25C171.004 104.547 171.502 103.926 172.146 103.387C172.803 102.836 173.6 102.408 174.537 102.104C175.486 101.787 176.553 101.629 177.736 101.629C179.389 101.629 180.807 101.893 181.99 102.42C183.186 102.947 184.1 103.674 184.732 104.6C185.377 105.514 185.699 106.557 185.699 107.729H180.637C180.637 107.236 180.531 106.797 180.32 106.41C180.121 106.012 179.805 105.701 179.371 105.479C178.949 105.244 178.398 105.127 177.719 105.127C177.156 105.127 176.67 105.227 176.26 105.426C175.85 105.613 175.533 105.871 175.311 106.199C175.1 106.516 174.994 106.867 174.994 107.254C174.994 107.547 175.053 107.811 175.17 108.045C175.299 108.268 175.504 108.473 175.785 108.66C176.066 108.848 176.43 109.023 176.875 109.188C177.332 109.34 177.895 109.48 178.562 109.609C179.934 109.891 181.158 110.26 182.236 110.717C183.314 111.162 184.17 111.771 184.803 112.545C185.436 113.307 185.752 114.309 185.752 115.551C185.752 116.395 185.564 117.168 185.189 117.871C184.814 118.574 184.275 119.189 183.572 119.717C182.869 120.232 182.025 120.637 181.041 120.93C180.068 121.211 178.973 121.352 177.754 121.352C175.984 121.352 174.484 121.035 173.254 120.402C172.035 119.77 171.109 118.967 170.477 117.994C169.855 117.01 169.545 116.002 169.545 114.971H174.344C174.367 115.662 174.543 116.219 174.871 116.641C175.211 117.062 175.639 117.367 176.154 117.555C176.682 117.742 177.25 117.836 177.859 117.836C178.516 117.836 179.061 117.748 179.494 117.572C179.928 117.385 180.256 117.139 180.479 116.834C180.713 116.518 180.83 116.154 180.83 115.744ZM199.322 115.744C199.322 115.381 199.217 115.053 199.006 114.76C198.795 114.467 198.402 114.197 197.828 113.951C197.266 113.693 196.451 113.459 195.385 113.248C194.424 113.037 193.527 112.773 192.695 112.457C191.875 112.129 191.16 111.736 190.551 111.279C189.953 110.822 189.484 110.283 189.145 109.662C188.805 109.029 188.635 108.309 188.635 107.5C188.635 106.703 188.805 105.953 189.145 105.25C189.496 104.547 189.994 103.926 190.639 103.387C191.295 102.836 192.092 102.408 193.029 102.104C193.979 101.787 195.045 101.629 196.229 101.629C197.881 101.629 199.299 101.893 200.482 102.42C201.678 102.947 202.592 103.674 203.225 104.6C203.869 105.514 204.191 106.557 204.191 107.729H199.129C199.129 107.236 199.023 106.797 198.812 106.41C198.613 106.012 198.297 105.701 197.863 105.479C197.441 105.244 196.891 105.127 196.211 105.127C195.648 105.127 195.162 105.227 194.752 105.426C194.342 105.613 194.025 105.871 193.803 106.199C193.592 106.516 193.486 106.867 193.486 107.254C193.486 107.547 193.545 107.811 193.662 108.045C193.791 108.268 193.996 108.473 194.277 108.66C194.559 108.848 194.922 109.023 195.367 109.188C195.824 109.34 196.387 109.48 197.055 109.609C198.426 109.891 199.65 110.26 200.729 110.717C201.807 111.162 202.662 111.771 203.295 112.545C203.928 113.307 204.244 114.309 204.244 115.551C204.244 116.395 204.057 117.168 203.682 117.871C203.307 118.574 202.768 119.189 202.064 119.717C201.361 120.232 200.518 120.637 199.533 120.93C198.561 121.211 197.465 121.352 196.246 121.352C194.477 121.352 192.977 121.035 191.746 120.402C190.527 119.77 189.602 118.967 188.969 117.994C188.348 117.01 188.037 116.002 188.037 114.971H192.836C192.859 115.662 193.035 116.219 193.363 116.641C193.703 117.062 194.131 117.367 194.646 117.555C195.174 117.742 195.742 117.836 196.352 117.836C197.008 117.836 197.553 117.748 197.986 117.572C198.42 117.385 198.748 117.139 198.971 116.834C199.205 116.518 199.322 116.154 199.322 115.744ZM206.723 111.684V111.314C206.723 109.92 206.922 108.637 207.32 107.465C207.719 106.281 208.299 105.256 209.061 104.389C209.822 103.521 210.76 102.848 211.873 102.367C212.986 101.875 214.264 101.629 215.705 101.629C217.146 101.629 218.43 101.875 219.555 102.367C220.68 102.848 221.623 103.521 222.385 104.389C223.158 105.256 223.744 106.281 224.143 107.465C224.541 108.637 224.74 109.92 224.74 111.314V111.684C224.74 113.066 224.541 114.35 224.143 115.533C223.744 116.705 223.158 117.73 222.385 118.609C221.623 119.477 220.686 120.15 219.572 120.631C218.459 121.111 217.182 121.352 215.74 121.352C214.299 121.352 213.016 121.111 211.891 120.631C210.777 120.15 209.834 119.477 209.061 118.609C208.299 117.73 207.719 116.705 207.32 115.533C206.922 114.35 206.723 113.066 206.723 111.684ZM211.785 111.314V111.684C211.785 112.48 211.855 113.225 211.996 113.916C212.137 114.607 212.359 115.217 212.664 115.744C212.98 116.26 213.391 116.664 213.895 116.957C214.398 117.25 215.014 117.396 215.74 117.396C216.443 117.396 217.047 117.25 217.551 116.957C218.055 116.664 218.459 116.26 218.764 115.744C219.068 115.217 219.291 114.607 219.432 113.916C219.584 113.225 219.66 112.48 219.66 111.684V111.314C219.66 110.541 219.584 109.814 219.432 109.135C219.291 108.443 219.062 107.834 218.746 107.307C218.441 106.768 218.037 106.346 217.533 106.041C217.029 105.736 216.42 105.584 215.705 105.584C214.99 105.584 214.381 105.736 213.877 106.041C213.385 106.346 212.98 106.768 212.664 107.307C212.359 107.834 212.137 108.443 211.996 109.135C211.855 109.814 211.785 110.541 211.785 111.314ZM233.564 95.4062L232.984 113.178H228.766L228.168 95.4062H233.564ZM228.027 118.68C228.027 117.93 228.285 117.309 228.801 116.816C229.328 116.312 230.02 116.061 230.875 116.061C231.742 116.061 232.434 116.312 232.949 116.816C233.465 117.309 233.723 117.93 233.723 118.68C233.723 119.406 233.465 120.021 232.949 120.525C232.434 121.029 231.742 121.281 230.875 121.281C230.02 121.281 229.328 121.029 228.801 120.525C228.285 120.021 228.027 119.406 228.027 118.68Z" fill="#F0F0F5"/>
<path d="M188.667 29.5467V32C188.663 37.7505 186.801 43.3458 183.358 47.9516C179.915 52.5573 175.075 55.9267 169.561 57.5571C164.046 59.1876 158.153 58.9918 152.759 56.9989C147.364 55.0061 142.759 51.323 139.629 46.4989C136.499 41.6748 135.013 35.9682 135.391 30.2302C135.769 24.4922 137.993 19.0302 141.729 14.6589C145.465 10.2876 150.514 7.24106 156.123 5.97377C161.732 4.70647 167.601 5.28628 172.853 7.62671" stroke="#34CB79" stroke-width="4" stroke-linecap="round" stroke-linejoin="round"/>
<path d="M188.667 10.6667L162 37.3601L154 29.3601" stroke="#34CB79" stroke-width="4" stroke-linecap="round" stroke-linejoin="round"/>
</svg>
